<svg width="600" height="760" viewBox="0 0 600 760" fill="none" xmlns="http://www.w3.org/2000/svg">
  <defs><linearGradient id="glass" x1="160" y1="220" x2="470" y2="650" gradientUnits="userSpaceOnUse"><stop stop-color="#E0B6B1" stop-opacity=".8"/><stop offset=".5" stop-color="#AE6868" stop-opacity=".9"/><stop offset="1" stop-color="#633438"/></linearGradient><linearGradient id="cap" x1="235" y1="90" x2="365" y2="210"><stop stop-color="#C79C94"/><stop offset=".5" stop-color="#76504D"/><stop offset="1" stop-color="#332725"/></linearGradient><filter id="shadow"><feGaussianBlur stdDeviation="20"/></filter></defs>
  <ellipse cx="300" cy="680" rx="175" ry="28" fill="#4A2023" fill-opacity=".2" filter="url(#shadow)"/><rect x="235" y="103" width="130" height="108" rx="8" fill="url(#cap)"/><rect x="248" y="85" width="104" height="25" rx="3" fill="#9E716C"/><rect x="155" y="190" width="290" height="454" rx="32" fill="url(#glass)"/><path d="M187 224C205 205 222 211 220 251L212 557C211 597 188 603 176 568V252C176 239 180 229 187 224Z" fill="white" fill-opacity=".28"/>
  <rect x="196" y="352" width="208" height="154" fill="#F4E8E2"/><text x="300" y="404" text-anchor="middle" fill="#3A2222" font-family="Georgia" font-size="41" letter-spacing="8">JAE</text><text x="300" y="431" text-anchor="middle" fill="#3A2222" font-family="Arial" font-size="11" letter-spacing="5">PARIS</text><line x1="238" y1="454" x2="362" y2="454" stroke="#AC7772"/><text x="300" y="478" text-anchor="middle" fill="#593536" font-family="Georgia" font-size="14" letter-spacing="2">ROSE INSOLENTE</text>
</svg>
