<svg width="600" height="760" viewBox="0 0 600 760" fill="none" xmlns="http://www.w3.org/2000/svg">
  <defs><linearGradient id="glass" x1="150" y1="200" x2="450" y2="660" gradientUnits="userSpaceOnUse"><stop stop-color="#EBD39A" stop-opacity=".75"/><stop offset=".55" stop-color="#B47A2D" stop-opacity=".9"/><stop offset="1" stop-color="#633A13"/></linearGradient><linearGradient id="cap" x1="240" y1="90" x2="360" y2="205"><stop stop-color="#F4D994"/><stop offset=".5" stop-color="#A87528"/><stop offset="1" stop-color="#67400F"/></linearGradient><filter id="shadow"><feGaussianBlur stdDeviation="20"/></filter></defs>
  <ellipse cx="300" cy="680" rx="175" ry="28" fill="#6B4316" fill-opacity=".2" filter="url(#shadow)"/><rect x="235" y="102" width="130" height="110" rx="8" fill="url(#cap)"/><rect x="248" y="84" width="104" height="25" rx="3" fill="#C29A52"/><rect x="155" y="190" width="290" height="454" rx="32" fill="url(#glass)"/><path d="M188 223C205 206 221 211 220 252L211 555C210 597 188 600 177 567V252C177 238 181 229 188 223Z" fill="white" fill-opacity=".3"/>
  <rect x="196" y="352" width="208" height="154" fill="#F8F1E4"/><text x="300" y="404" text-anchor="middle" fill="#382713" font-family="Georgia" font-size="41" letter-spacing="8">JAE</text><text x="300" y="431" text-anchor="middle" fill="#382713" font-family="Arial" font-size="11" letter-spacing="5">PARIS</text><line x1="238" y1="454" x2="362" y2="454" stroke="#B68D4E"/><text x="300" y="478" text-anchor="middle" fill="#5A4121" font-family="Georgia" font-size="14" letter-spacing="2">OR SOLAIRE</text>
</svg>
