<svg width="600" height="760" viewBox="0 0 600 760" fill="none" xmlns="http://www.w3.org/2000/svg">
  <defs><linearGradient id="glass" x1="160" y1="220" x2="480" y2="650" gradientUnits="userSpaceOnUse"><stop stop-color="#58463A"/><stop offset=".45" stop-color="#1D1A18"/><stop offset="1" stop-color="#090909"/></linearGradient><linearGradient id="shine" x1="200" y1="250" x2="360" y2="600" gradientUnits="userSpaceOnUse"><stop stop-color="white" stop-opacity=".32"/><stop offset="1" stop-color="white" stop-opacity="0"/></linearGradient><filter id="shadow"><feGaussianBlur stdDeviation="20"/></filter></defs>
  <ellipse cx="300" cy="680" rx="175" ry="28" fill="#000" fill-opacity=".25" filter="url(#shadow)"/>
  <rect x="235" y="104" width="130" height="104" rx="8" fill="#151310"/><rect x="248" y="86" width="104" height="26" rx="3" fill="#8F755B"/><rect x="155" y="190" width="290" height="454" rx="32" fill="url(#glass)"/><path d="M184 225C207 204 223 210 222 251L213 558C212 598 189 602 176 570V251C176 240 178 231 184 225Z" fill="url(#shine)"/>
  <rect x="196" y="352" width="208" height="154" fill="#E8E0D3"/><text x="300" y="404" text-anchor="middle" fill="#161311" font-family="Georgia" font-size="41" letter-spacing="8">JAE</text><text x="300" y="431" text-anchor="middle" fill="#161311" font-family="Arial" font-size="11" letter-spacing="5">PARIS</text><line x1="238" y1="454" x2="362" y2="454" stroke="#88715C"/><text x="300" y="478" text-anchor="middle" fill="#40372F" font-family="Georgia" font-size="14" letter-spacing="2">NUIT SOUVERAINE</text>
</svg>
